<svg xmlns="http://www.w3.org/2000/svg" width="500" height="500" viewBox="0 0 500 500" version="1.1"><path d="M 242 26 C 242 26.550, 242.900 27, 244 27 C 245.333 27, 246 27.667, 246 29 C 246 30.901, 245.333 31, 232.500 31 C 221.412 31, 219 30.743, 219 29.559 C 219 27.364, 217.421 26.851, 214.606 28.134 C 211.606 29.501, 212.104 31, 215.559 31 C 217.333 31, 218 31.546, 218 33 C 218 34.822, 217.333 35, 210.500 35 C 203.585 35, 203 34.839, 203 32.933 C 203 31.254, 202.577 30.993, 200.750 31.545 C 196.824 32.731, 196.455 33.941, 199.813 34.613 C 202.036 35.057, 203 35.817, 203 37.125 C 203 38.707, 202.223 39, 198.035 39 C 194.094 39, 192.850 38.588, 192 37 C 190.815 34.785, 188.026 34.374, 186.247 36.153 C 185.447 36.953, 185.400 37.879, 186.093 39.174 C 187.453 41.714, 186.433 43, 183.058 43 C 181.074 43, 180.078 43.596, 179.710 45 C 179.268 46.693, 178.346 47, 173.710 47 C 169.074 47, 168.153 47.307, 167.710 49 C 167.314 50.516, 166.346 51, 163.710 51 C 161.074 51, 160.107 51.484, 159.710 53 C 159.331 54.450, 158.346 55, 156.129 55 C 154.094 55, 152.712 55.669, 152 57 C 151.321 58.268, 149.906 59, 148.131 59 C 144.682 59, 143.670 59.897, 145.131 61.658 C 146.799 63.668, 150.776 63.287, 152 61 C 152.696 59.699, 154.094 59, 156 59 C 157.906 59, 159.304 58.301, 160 57 C 160.696 55.699, 162.094 55, 164 55 C 165.906 55, 167.304 54.301, 168 53 C 168.825 51.459, 170.094 51, 173.527 51 C 176.900 51, 178.287 50.514, 179.232 49 C 180.187 47.470, 181.564 47, 185.086 47 C 188.420 47, 190.189 46.448, 191.500 45 C 192.777 43.589, 194.580 43, 197.620 43 C 200.906 43, 202.184 42.525, 203 41 C 203.912 39.295, 205.094 39, 211 39 C 216.906 39, 218.088 38.705, 219 37 C 219.983 35.163, 221.094 35, 232.629 35 C 244.346 35, 245.222 34.866, 245.710 33 C 246.219 31.055, 247.074 31, 277.081 31 C 306.906 31, 307.965 31.066, 309 33 C 309.979 34.829, 311.094 35, 322.045 35 C 332.782 35, 334.197 35.207, 335.732 37 C 337.201 38.716, 338.682 39, 346.155 39 C 353.987 39, 354.929 39.202, 355.500 41 C 356.021 42.641, 357.013 43, 361.032 43 C 364.906 43, 366.153 43.418, 367 45 C 367.848 46.585, 369.094 47, 373 47 C 376.906 47, 378.152 47.415, 379 49 C 379.816 50.525, 381.094 51, 384.380 51 C 387.420 51, 389.223 51.589, 390.500 53 C 391.495 54.100, 393.366 55, 394.657 55 C 396.109 55, 398.472 56.559, 400.855 59.089 C 403.679 62.086, 405.346 63.087, 407.103 62.839 C 408.720 62.610, 409.500 61.849, 409.500 60.500 C 409.500 58.845, 408.938 58.554, 406.243 58.815 C 403.829 59.048, 402.811 58.660, 402.305 57.315 C 401.931 56.317, 401.020 55.046, 400.281 54.491 C 399.543 53.936, 399.065 52.379, 399.219 51.032 C 399.574 47.935, 396.641 47.110, 393.946 49.548 C 391.837 51.457, 390.862 50.341, 391.281 46.500 C 391.557 43.978, 387.875 43.241, 386.040 45.452 C 385.333 46.303, 383.460 47, 381.878 47 C 379.691 47, 379 46.532, 379 45.050 C 379 43.977, 379.784 42.661, 380.742 42.125 C 381.700 41.589, 382.152 40.819, 381.748 40.414 C 381.343 40.010, 380.187 40.426, 379.177 41.339 C 377.152 43.172, 373.458 43.550, 372.513 42.021 C 372.180 41.482, 372.357 40.201, 372.907 39.174 C 373.600 37.879, 373.553 36.953, 372.753 36.153 C 370.974 34.374, 368.185 34.785, 367 37 C 366.150 38.588, 364.906 39, 360.965 39 C 356.667 39, 356 38.731, 356 37 C 356 35.768, 356.672 34.994, 357.750 34.985 C 358.712 34.976, 360.123 34.575, 360.885 34.092 C 361.982 33.397, 361.794 32.960, 359.979 31.989 C 357.991 30.925, 357.472 31.049, 356.056 32.925 C 354.576 34.888, 353.651 35.061, 346.043 34.794 C 340.666 34.605, 337.519 34.072, 337.266 33.306 C 336.877 32.131, 341.382 30.548, 347.500 29.710 C 349.605 29.422, 349.101 29.255, 345.809 29.150 C 343.229 29.067, 340.840 28.550, 340.500 28 C 339.394 26.211, 336 26.867, 336 28.869 C 336 31.422, 331.034 32.131, 318.750 31.333 C 310.159 30.775, 309 30.479, 309 28.850 C 309 27.543, 309.734 27, 311.500 27 C 312.875 27, 314 26.550, 314 26 C 314 25.450, 312.875 25, 311.500 25 C 310.125 25, 309 25.360, 309 25.799 C 309 26.239, 307.345 27.197, 305.322 27.928 C 300.061 29.831, 257.329 29.956, 250.750 28.088 C 248.137 27.347, 246 26.349, 246 25.870 C 246 25.392, 245.100 25, 244 25 C 242.900 25, 242 25.450, 242 26 M 176 41 C 176 41.550, 176.675 42, 177.500 42 C 178.325 42, 179 41.550, 179 41 C 179 40.450, 178.325 40, 177.500 40 C 176.675 40, 176 40.450, 176 41 M 418 68.500 C 418 69.325, 418.392 70, 418.870 70 C 419.349 70, 422.449 72.700, 425.760 76 C 429.070 79.300, 432.053 82, 432.389 82 C 433.554 82, 432.993 79.095, 431.675 78.300 C 430.946 77.860, 430.060 76.713, 429.706 75.750 C 429.352 74.787, 428.374 74, 427.531 74 C 426.689 74, 426 73.489, 426 72.865 C 426 71.288, 421.210 67, 419.448 67 C 418.652 67, 418 67.675, 418 68.500 M 438.667 82.667 C 437.643 83.690, 437.876 86, 439.002 86 C 439.553 86, 441.746 87.849, 443.875 90.110 C 446.296 92.680, 448.003 93.804, 448.432 93.110 C 449.328 91.660, 448.265 90, 446.441 90 C 445.648 90, 445 89.283, 445 88.406 C 445 87.530, 444.100 86.577, 443 86.290 C 441.893 86, 441 84.926, 441 83.883 C 441 81.992, 439.910 81.424, 438.667 82.667 M 453 102.791 C 453 103.226, 454.800 105.237, 457 107.260 C 459.200 109.283, 461 111.435, 461 112.042 C 461 113.472, 464.214 112.861, 464.722 111.335 C 464.936 110.694, 464.185 109.876, 463.055 109.517 C 461.925 109.159, 461 108.206, 461 107.401 C 461 106.596, 460.212 105.648, 459.250 105.294 C 458.288 104.940, 457.140 104.054, 456.700 103.325 C 455.839 101.898, 453 101.488, 453 102.791 M 465.593 117.849 C 465.174 118.527, 466.128 120.282, 467.857 122.011 C 471.378 125.532, 472 125.681, 472 123 C 472 121.900, 471.510 121, 470.910 121 C 470.311 121, 469.033 120.027, 468.070 118.838 C 466.852 117.333, 466.098 117.032, 465.593 117.849 M 473.500 130 C 473.101 130.646, 473.224 131.624, 473.774 132.174 C 474.441 132.841, 475.016 132.783, 475.500 132 C 475.899 131.354, 475.776 130.376, 475.226 129.826 C 474.559 129.159, 473.984 129.217, 473.500 130 M 146.500 132.628 C 138.852 133.748, 128.146 141.352, 122.744 149.500 C 115.466 160.479, 113.843 175.658, 119.735 177.647 C 123.238 178.830, 142.762 188.790, 156.103 196.202 C 159.524 198.102, 159.869 198.119, 162.922 196.540 C 167.630 194.106, 171.444 189.464, 175.689 181 C 179.316 173.770, 179.452 173.122, 179.476 163 C 179.501 151.963, 178.478 148.623, 172.660 140.754 C 168.059 134.531, 156.989 131.092, 146.500 132.628 M 292.500 136.659 C 282.942 139.306, 272.602 148.321, 268.508 157.577 C 262.190 171.863, 263.422 195.922, 270.612 198.681 C 271.435 198.997, 273.984 198.410, 276.278 197.378 C 279.782 195.801, 282.934 195.500, 295.975 195.500 C 306.403 195.500, 312.848 195.947, 315.606 196.862 C 320.836 198.598, 322.856 197.582, 325.770 191.747 C 331.121 181.032, 330.951 162.227, 325.414 152.203 C 319.673 141.813, 312.439 137.017, 301.682 136.470 C 297.732 136.270, 293.600 136.355, 292.500 136.659 M 476.570 137.887 C 475.889 138.988, 478.438 141.229, 479.342 140.325 C 479.704 139.963, 480 139.067, 480 138.333 C 480 136.844, 477.422 136.508, 476.570 137.887 M 481.145 145.325 C 480.237 146.419, 480.311 147.013, 481.476 147.980 C 482.700 148.996, 483.095 148.916, 483.621 147.545 C 484.518 145.208, 482.640 143.523, 481.145 145.325 M 485.179 152.143 C 485.355 153.989, 485.950 155.387, 486.500 155.250 C 487.986 154.879, 487.712 149.737, 486.179 149.226 C 485.220 148.907, 484.946 149.708, 485.179 152.143 M 489.446 164.087 C 489.077 164.685, 489.275 165.675, 489.887 166.287 C 490.704 167.104, 491 166.815, 491 165.200 C 491 162.785, 490.481 162.413, 489.446 164.087 M 493.249 173.539 C 493.287 176.036, 493.696 178.312, 494.159 178.598 C 494.622 178.884, 495 176.841, 495 174.059 C 495 171.277, 494.591 169, 494.090 169 C 493.590 169, 493.212 171.043, 493.249 173.539 M 8.393 236.582 C 8.727 237.452, 9 238.407, 9 238.704 C 9 239.002, 9.670 238.689, 10.489 238.009 C 12.204 236.585, 11.596 235, 9.334 235 C 8.333 235, 8.001 235.559, 8.393 236.582 M 497.250 273.662 C 495.593 274.331, 495.551 287.151, 497.200 288.800 C 499.532 291.132, 500 289.911, 500 281.500 C 500 276.825, 499.663 273.036, 499.250 273.079 C 498.837 273.122, 497.938 273.385, 497.250 273.662 M 492.688 293.646 C 492.309 294.024, 492 297.300, 492 300.926 C 492 306.436, 491.671 307.724, 490 308.768 C 488.172 309.909, 488 311.100, 488 322.602 C 488 334.346, 488.134 335.222, 490 335.710 C 491.751 336.168, 492 337.074, 492 342.994 C 492 347.430, 492.461 350.138, 493.342 350.869 C 495.477 352.641, 496 351.160, 496 343.333 C 496 336.667, 495.818 336, 494 336 C 492.100 336, 492 335.333, 492 322.617 C 492 309.975, 492.113 309.204, 494.045 308.698 C 495.905 308.212, 496.064 307.505, 495.795 300.912 C 495.526 294.286, 494.483 291.850, 492.688 293.646 M 497 310.378 C 497 310.585, 497.675 311.315, 498.500 312 C 499.729 313.020, 500 312.951, 500 311.622 C 500 310.730, 499.325 310, 498.500 310 C 497.675 310, 497 310.170, 497 310.378 M 492.570 387.887 C 492.269 388.374, 492.652 389.296, 493.422 389.935 C 494.981 391.229, 496.577 389.742, 495.500 388 C 494.735 386.762, 493.300 386.706, 492.570 387.887 M 481.250 403.417 C 476.712 408.004, 473 412.262, 473 412.879 C 473 414.811, 475.834 414.099, 476.500 412 C 476.849 410.900, 477.779 410, 478.567 410 C 479.355 410, 480 409.283, 480 408.406 C 480 407.530, 480.900 406.577, 482 406.290 C 483.100 406.002, 484 405.102, 484 404.290 C 484 403.477, 484.900 402.577, 486 402.290 C 487.100 402.002, 488 401.175, 488 400.451 C 488 399.727, 488.925 398.841, 490.055 398.483 C 492.064 397.845, 492.302 395.897, 490.438 395.350 C 489.922 395.199, 485.788 398.829, 481.250 403.417" stroke="none" fill="#2f2f2f" fill-rule="evenodd"/><path d="M 232 23.969 C 225.675 24.296, 219.233 25.112, 217.685 25.782 C 216.137 26.452, 213.806 27, 212.506 27 C 211.205 27, 205.384 28.575, 199.569 30.500 C 193.755 32.425, 188.465 34, 187.814 34 C 187.164 34, 184.802 34.855, 182.566 35.901 C 180.330 36.946, 176.819 38.329, 174.764 38.974 C 169.946 40.485, 169.034 42, 172.941 42 C 174.623 42, 176 41.550, 176 41 C 176 40.450, 176.675 40, 177.500 40 C 179.316 40, 179.491 41.635, 177.750 42.338 C 176.976 42.650, 177.140 42.872, 178.180 42.921 C 179.193 42.969, 179.988 42.106, 180.180 40.750 C 180.411 39.129, 181.059 38.593, 182.500 38.834 C 185.520 39.337, 186.751 40.914, 184.992 42.026 C 184.095 42.593, 183.975 42.975, 184.691 42.985 C 186.555 43.009, 187.191 41.226, 186.067 39.126 C 184.503 36.202, 186.783 35.026, 193.309 35.388 C 198.536 35.678, 200.778 34.827, 197.750 33.703 C 197.063 33.447, 197.841 32.707, 199.479 32.057 C 201.551 31.235, 202.567 31.201, 202.815 31.944 C 203.011 32.532, 203.682 32.696, 204.308 32.310 C 205.628 31.494, 212.584 31.796, 215.500 32.796 C 216.882 33.270, 215.801 33.666, 212 34.078 L 206.500 34.674 212.250 34.837 C 217.388 34.983, 218 34.787, 218 33 C 218 31.546, 217.333 31, 215.559 31 C 212.088 31, 211.611 29.498, 214.643 28.117 C 216.412 27.311, 217.611 27.262, 218.454 27.962 C 219.130 28.523, 219.961 28.706, 220.299 28.368 C 220.637 28.030, 221.708 28.058, 222.679 28.430 C 224.185 29.008, 224.228 29.244, 222.972 30.038 C 222.018 30.642, 225.193 30.911, 232 30.805 C 242.379 30.642, 242.414 30.633, 235 30.070 C 229.084 29.620, 228.239 29.379, 231 28.926 C 232.925 28.611, 236.975 28.386, 240 28.426 C 243.025 28.467, 245.784 28.110, 246.131 27.633 C 246.478 27.157, 248.503 27.355, 250.631 28.075 C 256.041 29.904, 300.594 29.825, 305.053 27.978 C 306.873 27.224, 308.460 27.062, 308.842 27.590 C 309.628 28.677, 317.934 28.649, 327.229 27.527 C 333.739 26.741, 333.990 26.793, 334.916 29.107 C 335.870 31.493, 335.873 31.493, 335.937 29.250 C 335.977 27.800, 336.623 26.998, 337.750 26.994 C 339.009 26.989, 338.775 26.609, 336.917 25.640 C 335.276 24.784, 329.185 24.107, 320.227 23.784 C 306.349 23.285, 306.086 23.315, 304.066 25.639 C 301.659 28.407, 300.875 28.504, 297.007 26.504 C 295.416 25.681, 293.873 25.397, 293.579 25.873 C 293.285 26.349, 287.872 26.510, 281.551 26.231 C 273.998 25.897, 268.551 26.146, 265.660 26.955 C 261.996 27.981, 260.781 27.941, 258.381 26.715 C 256.194 25.597, 255.081 25.512, 253.761 26.359 C 252.352 27.264, 251.724 27.051, 250.454 25.238 C 249.407 23.744, 247.992 23.062, 246.193 23.187 C 244.712 23.291, 238.325 23.642, 232 23.969 M 242 26 C 242 26.550, 242.900 27, 244 27 C 245.100 27, 246 26.550, 246 26 C 246 25.450, 245.100 25, 244 25 C 242.900 25, 242 25.450, 242 26 M 309 26 C 309 26.550, 310.125 27, 311.500 27 C 312.875 27, 314 26.550, 314 26 C 314 25.450, 312.875 25, 311.500 25 C 310.125 25, 309 25.450, 309 26 M 340.408 27.851 C 340.798 28.483, 343.229 29.067, 345.809 29.150 C 349.101 29.255, 349.605 29.422, 347.500 29.710 C 341.379 30.548, 336.877 32.131, 337.268 33.306 C 337.828 34.987, 341.119 35.477, 340.776 33.828 C 340.578 32.876, 341.914 32.468, 345.500 32.385 C 348.250 32.322, 351.284 31.938, 352.242 31.531 C 353.418 31.032, 354.186 31.322, 354.610 32.426 C 355.188 33.931, 355.331 33.930, 356.447 32.403 C 357.484 30.986, 358.007 30.933, 360.077 32.041 C 361.528 32.818, 361.996 33.501, 361.247 33.751 C 358.125 34.792, 360.521 35.674, 365.691 35.388 C 372.176 35.028, 374.495 36.207, 372.956 39.082 C 372.153 40.583, 372.257 40.839, 373.477 40.371 C 374.315 40.049, 375 40.247, 375 40.810 C 375 41.373, 374.438 42.060, 373.750 42.338 C 373.063 42.615, 373.590 42.878, 374.921 42.921 C 376.253 42.964, 378.168 42.253, 379.177 41.339 C 380.187 40.426, 381.314 39.981, 381.683 40.350 C 382.052 40.719, 381.530 41.623, 380.523 42.360 C 378.876 43.564, 379.010 43.652, 381.846 43.236 C 384.273 42.880, 385 43.145, 385 44.387 C 385 45.274, 384.212 46.036, 383.250 46.079 C 382.112 46.130, 381.957 46.341, 382.808 46.682 C 383.527 46.970, 384.956 46.445, 385.983 45.515 C 388.271 43.445, 391.553 43.939, 391.355 46.323 C 391.241 47.708, 391.499 47.830, 392.605 46.913 C 394.825 45.071, 394.264 44.002, 390.250 42.424 C 388.188 41.613, 385.793 40.557, 384.929 40.078 C 382.018 38.464, 370.551 34.123, 363.500 31.967 C 359.650 30.790, 355.624 29.357, 354.554 28.783 C 351.622 27.209, 339.518 26.412, 340.408 27.851 M 245.637 31.500 C 245.885 32.145, 256.892 32.401, 276.646 32.221 C 306.444 31.950, 307.310 31.997, 308.692 33.971 C 309.983 35.814, 311.191 36, 321.902 36 C 332.420 36, 333.885 36.215, 335.500 38 C 337.088 39.754, 338.427 39.975, 346.405 39.794 L 355.500 39.589 346.535 39.252 C 339.198 38.977, 337.239 38.560, 335.746 36.958 C 334.132 35.225, 332.549 35, 321.996 35 C 311.149 35, 309.975 34.822, 309.015 33.027 C 308.003 31.138, 306.641 31.043, 276.606 30.777 C 256.002 30.595, 245.385 30.843, 245.637 31.500 M 317.500 31.038 C 320.800 31.448, 325.300 31.775, 327.500 31.766 L 331.500 31.750 327 30.949 C 324.525 30.509, 320.025 30.181, 317 30.221 L 311.500 30.294 317.500 31.038 M 232.500 35 L 219.500 35.592 232.191 35.796 C 239.802 35.918, 245.129 35.600, 245.500 35 C 245.840 34.450, 245.979 34.092, 245.809 34.204 C 245.639 34.316, 239.650 34.675, 232.500 35 M 346.250 34.689 C 347.212 34.941, 348.788 34.941, 349.750 34.689 C 350.712 34.438, 349.925 34.232, 348 34.232 C 346.075 34.232, 345.288 34.438, 346.250 34.689 M 203.029 40.945 C 202.277 42.350, 200.670 42.995, 197.244 43.265 L 192.500 43.640 197.193 43.820 C 200.842 43.960, 202.190 43.567, 203.251 42.053 C 204.306 40.546, 206.071 40.024, 211.057 39.745 L 217.500 39.385 210.785 39.193 C 205.041 39.028, 203.920 39.281, 203.029 40.945 M 161.464 45.037 C 158.734 46.627, 154.925 48.667, 153 49.569 C 148.399 51.726, 148.417 51.698, 150.338 53.821 C 151.518 55.125, 152.926 55.518, 155.220 55.181 C 158.288 54.731, 158.331 54.667, 156.107 53.844 C 154.236 53.152, 154.005 52.699, 154.943 51.568 C 155.806 50.529, 157.546 50.304, 161.539 50.716 C 166.562 51.235, 167.027 51.102, 167.832 48.925 C 168.706 46.561, 168.331 43.322, 167.093 42.558 C 166.727 42.331, 164.194 43.447, 161.464 45.037 M 358 43.558 C 361.716 44.367, 366.814 44.509, 366.371 43.791 C 366.102 43.356, 363.771 43.052, 361.191 43.116 C 358.611 43.180, 357.175 43.379, 358 43.558 M 190.450 45.940 C 189.928 46.457, 187.250 47.051, 184.500 47.260 L 179.500 47.640 184.628 47.820 C 188.142 47.943, 190.147 47.528, 191 46.500 C 192.367 44.853, 191.964 44.442, 190.450 45.940 M 395.544 46.929 C 395.229 47.439, 395.990 48.002, 397.235 48.179 C 399.036 48.434, 399.443 49.052, 399.220 51.199 C 399.026 53.075, 399.559 54.229, 400.970 54.984 C 402.336 55.715, 403 55.732, 403 55.035 C 403 53.420, 407.717 53.820, 408.358 55.490 C 409.012 57.194, 404.889 58.667, 402.902 57.440 C 402.097 56.942, 401.951 57.112, 402.467 57.946 C 402.946 58.722, 404.330 58.984, 406.089 58.632 C 408.148 58.220, 409.213 58.538, 409.937 59.781 C 410.505 60.755, 410.952 60.958, 410.970 60.250 C 410.986 59.563, 411.675 59, 412.500 59 C 413.325 59, 414 58.415, 414 57.700 C 414 55.962, 411.949 54, 410.134 54 C 409.328 54, 407.955 53.314, 407.084 52.475 C 404.891 50.365, 398.104 46, 397.015 46 C 396.521 46, 395.860 46.418, 395.544 46.929 M 370 47.558 C 373.716 48.367, 378.814 48.509, 378.371 47.791 C 378.102 47.356, 375.771 47.052, 373.191 47.116 C 370.611 47.180, 369.175 47.379, 370 47.558 M 163.500 49 C 163.840 49.550, 164.766 50, 165.559 50 C 166.352 50, 167 49.550, 167 49 C 167 48.450, 166.073 48, 164.941 48 C 163.809 48, 163.160 48.450, 163.500 49 M 386 53 C 386.652 54.219, 388.094 55, 389.690 55 C 392.247 55, 392.266 54.952, 390.500 53 C 389.505 51.900, 387.844 51, 386.810 51 C 385.240 51, 385.106 51.330, 386 53 M 395 57 C 396.268 58.100, 397.916 59, 398.661 59 C 399.767 59, 399.786 58.631, 398.768 57 C 398.080 55.898, 396.436 55, 395.106 55 L 392.694 55 395 57 M 416.738 67.637 C 415.946 68.895, 418.668 71.665, 419.691 70.643 C 420.044 70.289, 419.841 70, 419.240 70 C 418.639 70, 417.991 69.213, 417.800 68.250 C 417.573 67.104, 417.206 66.892, 416.738 67.637 M 424 75.258 C 425.925 77.304, 427.816 78.983, 428.202 78.989 C 429.049 79.002, 425.292 75.061, 422.500 73.008 C 421.400 72.199, 422.075 73.212, 424 75.258 M 114.543 75.931 C 113.860 77.036, 115.437 78.230, 116.361 77.306 C 117.311 76.355, 117.134 75, 116.059 75 C 115.541 75, 114.859 75.419, 114.543 75.931 M 438.750 81.080 C 437.788 81.641, 437.029 83.090, 437.063 84.300 C 437.126 86.468, 437.140 86.466, 438.070 84.145 C 438.644 82.713, 439.565 82.003, 440.424 82.332 C 441.200 82.630, 442.083 82.227, 442.386 81.437 C 443.023 79.776, 441.282 79.605, 438.750 81.080 M 448.429 91.945 C 448.429 93.416, 448.742 93.629, 449.714 92.822 C 450.421 92.235, 451 91.360, 451 90.878 C 451 90.395, 450.421 90, 449.714 90 C 449.007 90, 448.429 90.875, 448.429 91.945 M 86.543 98.931 C 85.803 100.128, 87.684 101.313, 89.016 100.490 C 90.135 99.799, 89.400 98, 88 98 C 87.515 98, 86.859 98.419, 86.543 98.931 M 452.441 102.096 C 452.068 102.699, 452.490 103.825, 453.378 104.600 C 454.266 105.374, 454.544 105.466, 453.996 104.804 C 452.584 103.097, 452.761 102, 454.450 102 C 455.248 102, 456.359 102.787, 456.920 103.750 C 457.481 104.713, 457.953 105.028, 457.970 104.450 C 458.047 101.763, 453.772 99.943, 452.441 102.096 M 78 107.441 C 78 108.234, 78.470 109.172, 79.044 109.527 C 80.335 110.325, 83.183 108.105, 82.430 106.887 C 81.534 105.438, 78 105.880, 78 107.441 M 464 110.034 C 465.298 110.903, 465.239 111.237, 463.559 112.519 C 462.491 113.334, 462.064 114, 462.609 114 C 464.017 114, 466 111.836, 466 110.300 C 466 109.585, 465.212 109.007, 464.250 109.015 C 462.749 109.028, 462.713 109.173, 464 110.034 M 464.011 118.798 C 464.017 119.184, 465.696 121.075, 467.742 123 C 469.788 124.925, 470.801 125.600, 469.992 124.500 C 467.939 121.708, 463.998 117.951, 464.011 118.798 M 144.250 132.689 C 145.213 132.941, 146.787 132.941, 147.750 132.689 C 148.713 132.438, 147.925 132.232, 146 132.232 C 144.075 132.232, 143.287 132.438, 144.250 132.689 M 55.446 134.087 C 54.573 135.499, 56.501 137.427, 57.913 136.554 C 59.499 135.574, 59.243 133, 57.559 133 C 56.766 133, 55.816 133.489, 55.446 134.087 M 137.500 135.068 C 135.850 136.125, 134.950 136.989, 135.500 136.988 C 136.050 136.987, 137.850 136.093, 139.500 135 C 141.150 133.907, 142.050 133.043, 141.500 133.080 C 140.950 133.116, 139.150 134.011, 137.500 135.068 M 297.264 135.718 C 298.784 135.947, 301.034 135.941, 302.264 135.704 C 303.494 135.467, 302.250 135.279, 299.500 135.286 C 296.750 135.294, 295.744 135.488, 297.264 135.718 M 287.222 137.661 C 285.419 138.550, 284.171 139.504, 284.448 139.781 C 284.725 140.058, 285.525 139.811, 286.226 139.233 C 286.927 138.654, 289.075 137.730, 291 137.180 C 292.987 136.613, 293.636 136.151, 292.500 136.113 C 291.400 136.076, 289.025 136.773, 287.222 137.661 M 130.500 139.625 C 128.702 141.155, 128.334 141.763, 129.582 141.143 C 131.415 140.233, 134.853 136.941, 133.872 137.036 C 133.668 137.056, 132.150 138.221, 130.500 139.625 M 313.284 139.389 C 315.365 140.668, 318.287 142.791, 319.777 144.107 L 322.486 146.500 320.493 144.120 C 318.457 141.689, 311.659 136.975, 310.270 137.031 C 309.846 137.048, 311.203 138.109, 313.284 139.389 M 479.663 139.436 C 479.412 140.091, 479.439 141.846, 479.724 143.336 C 480.138 145.503, 480.517 145.816, 481.621 144.900 C 483.268 143.533, 483.166 143.297, 483.582 149.409 C 483.767 152.108, 484.295 154.695, 484.758 155.158 C 485.220 155.620, 485.406 154.353, 485.171 152.343 C 484.814 149.284, 485.010 148.790, 486.372 149.313 C 487.268 149.656, 488 149.549, 488 149.076 C 488 148.602, 487.325 147.955, 486.500 147.638 C 485.591 147.290, 484.997 145.770, 484.992 143.781 C 484.986 141.286, 484.402 140.230, 482.552 139.372 C 480.712 138.519, 480.009 138.535, 479.663 139.436 M 173.129 141.517 C 175.100 143.916, 178.023 149.566, 179.066 152.994 C 179.575 154.668, 179.857 154.908, 179.914 153.717 C 180.030 151.308, 175.597 142.717, 173.328 140.954 C 171.599 139.611, 171.588 139.641, 173.129 141.517 M 277.473 144.577 L 272.500 149.153 277.750 144.920 C 282.460 141.122, 283.594 140, 282.723 140 C 282.570 140, 280.208 142.059, 277.473 144.577 M 123.278 147.250 C 121.324 149.777, 120.657 151.330, 121.840 150.599 C 123.024 149.867, 125.393 146, 124.658 146 C 124.431 146, 123.810 146.563, 123.278 147.250 M 117.970 156.055 C 117.365 157.186, 117.018 158.555, 117.200 159.099 C 117.381 159.642, 118.046 158.717, 118.678 157.043 C 119.991 153.562, 119.598 153.013, 117.970 156.055 M 487.520 156.750 C 487.924 157.713, 488.359 160.429, 488.488 162.788 C 488.625 165.311, 489.378 167.574, 490.317 168.288 C 491.314 169.045, 492.023 171.375, 492.207 174.491 C 492.431 178.308, 492.912 179.560, 494.250 179.814 C 496.976 180.332, 496.766 170.003, 494 167.500 C 492.900 166.505, 492 164.828, 492 163.774 C 492 162.720, 491.292 161.149, 490.426 160.283 C 489.147 159.004, 489.100 158.549, 490.176 157.855 C 491.253 157.159, 491.221 156.817, 490 156.015 C 487.710 154.512, 486.706 154.810, 487.520 156.750 M 266.544 159.902 C 265.571 162.060, 265.015 164.427, 265.309 165.163 C 265.661 166.047, 265.869 165.890, 265.921 164.700 C 265.964 163.711, 266.708 161.531, 267.574 159.857 C 268.439 158.184, 268.960 156.626, 268.730 156.397 C 268.501 156.167, 267.517 157.745, 266.544 159.902 M 180.310 162.500 C 180.315 165.800, 180.502 167.029, 180.725 165.232 C 180.947 163.435, 180.943 160.735, 180.715 159.232 C 180.486 157.729, 180.304 159.200, 180.310 162.500 M 329.500 172 C 329.500 178.263, 329.784 182.062, 330.132 180.443 C 330.479 178.824, 330.763 175.025, 330.763 172 C 330.763 168.975, 330.479 165.176, 330.132 163.557 C 329.784 161.938, 329.500 165.737, 329.500 172 M 489.446 164.087 C 489.077 164.685, 489.275 165.675, 489.887 166.287 C 490.704 167.104, 491 166.815, 491 165.200 C 491 162.785, 490.481 162.413, 489.446 164.087 M 114.965 168 C 114.817 169.375, 114.646 171.045, 114.586 171.712 C 114.332 174.533, 112.215 175.332, 108.806 173.894 C 106.482 172.914, 101.193 172.506, 91 172.520 C 73.155 172.545, 70.057 173.538, 53.573 184.516 C 45.083 190.169, 40.021 194.430, 34.732 200.373 C 26.543 209.574, 23.595 213.550, 22.573 216.769 C 22.096 218.272, 21.071 219, 19.433 219 C 18.095 219, 17 219.402, 17 219.893 C 17 221.730, 13.551 222.106, 12.306 220.404 C 11.607 219.448, 9.621 218.656, 7.780 218.600 C 4.726 218.507, 4.465 218.225, 3.997 214.500 C 3.619 211.499, 3.307 210.957, 2.747 212.332 C 1.500 215.391, 1.901 217.935, 3.900 219.647 C 5.351 220.889, 5.613 221.892, 5.008 223.887 C 4.572 225.324, 3.645 229.088, 2.948 232.250 C 2.251 235.412, 1.302 238, 0.840 238 C 0.378 238, 0 240.700, 0 244 C 0 248.710, 0.328 250, 1.525 250 C 3.446 250, 5.163 254.366, 4.502 257.569 C 4.226 258.906, 3.766 261.125, 3.481 262.500 C 3.195 263.875, 2.295 265, 1.481 265 C 0.255 265, 0 267.077, 0 277.073 C 0 288.032, 0.162 289.116, 1.750 288.812 C 3.249 288.526, 3.572 286.936, 4 277.722 C 4.487 267.255, 4.573 266.927, 7.208 265.563 C 10.672 263.771, 10.640 263.666, 11.924 281.123 C 12.476 288.615, 13.353 295.815, 13.874 297.123 C 14.396 298.430, 15.367 302.875, 16.034 307 C 17.213 314.298, 20.127 321.748, 22.384 323.235 C 24.016 324.309, 30.439 324.161, 31.578 323.022 C 32.897 321.703, 43.436 318.049, 49 316.982 C 55.049 315.822, 65.562 315.832, 70.632 317.003 C 75.613 318.153, 94.181 328.900, 98.835 333.328 C 104.513 338.728, 105.468 341.436, 105.420 352 C 105.385 359.638, 104.936 362.480, 103.127 366.500 C 99.792 373.914, 95.889 381.290, 94.354 383.079 C 93.610 383.947, 93 385.074, 93 385.583 C 93 386.092, 88.969 391.232, 84.042 397.004 C 79.115 402.777, 74.364 409.381, 73.486 411.681 C 71.916 415.788, 71.935 415.937, 74.610 420.181 C 76.108 422.556, 81.017 428.332, 85.519 433.015 C 90.021 437.698, 94.513 443.098, 95.501 445.015 C 96.488 446.932, 98.438 450.002, 99.834 451.838 C 101.823 454.455, 102.141 455.545, 101.302 456.887 C 100.513 458.151, 100.595 459.094, 101.617 460.491 C 103.303 462.797, 103.428 468.172, 101.833 469.767 C 100.943 470.657, 101.062 471.087, 102.333 471.574 C 103.250 471.926, 104 472.976, 104 473.907 C 104 475.756, 105.839 478, 107.355 478 C 107.880 478, 107.626 477.212, 106.789 476.250 C 103.345 472.287, 103.957 464, 107.693 464 C 110.033 464, 113.718 468.442, 114.561 472.277 C 115.107 474.762, 114.810 475.736, 113.078 477.138 L 110.913 478.891 113.400 480.195 C 114.767 480.913, 120.122 485.663, 125.300 490.750 L 134.714 500 159.774 500 C 173.557 500, 184.983 499.663, 185.167 499.250 C 185.350 498.837, 187.750 497.380, 190.500 496.012 C 193.250 494.643, 197.386 492.102, 199.692 490.364 C 201.998 488.627, 204.473 486.999, 205.192 486.748 C 206.096 486.432, 205.737 485.662, 204.032 484.260 C 202.002 482.589, 201.785 481.964, 202.805 480.735 C 203.487 479.913, 205.464 478.957, 207.200 478.610 C 208.935 478.263, 211.512 476.878, 212.927 475.533 C 216.519 472.117, 230.828 461, 231.632 461 C 233.160 461, 241.150 453.611, 242.550 450.903 C 244.231 447.652, 243.482 443.344, 239.861 435.434 C 238.838 433.198, 238 430.486, 238 429.407 C 238 428.328, 237.390 426.557, 236.644 425.473 C 233.196 420.456, 232.051 390.893, 234.927 381.155 C 236.480 375.897, 242.396 369.518, 250.275 364.608 C 256.537 360.705, 258.883 359.868, 267.656 358.411 C 277.188 356.828, 278.366 356.830, 287.287 358.436 C 294.724 359.775, 299.100 361.319, 307.508 365.572 C 313.409 368.558, 318.747 371.003, 319.369 371.006 C 319.991 371.010, 321.772 371.676, 323.327 372.487 C 325.894 373.825, 326.509 373.781, 329.991 372.005 C 334.190 369.862, 337.498 366.093, 347.053 352.562 C 355.291 340.897, 356.726 338.292, 368.568 313.500 C 370.957 308.497, 374.017 296.026, 375.216 286.401 C 376.022 279.934, 376.065 272.992, 375.365 262.401 C 374.421 248.122, 374.220 247.169, 370.559 239.570 C 365.253 228.558, 361.374 223.504, 352.251 215.714 C 343.578 208.309, 338.185 204.699, 330.250 200.985 C 324.613 198.347, 323.649 196.168, 326.468 192.441 C 327.276 191.374, 327.944 189.825, 327.954 189 C 327.964 188.175, 326.966 189.472, 325.736 191.882 C 322.998 197.248, 320.102 198.828, 316.250 197.057 C 312.656 195.404, 286.776 194.477, 281.500 195.811 C 279.300 196.368, 275.999 197.426, 274.164 198.162 C 270.992 199.435, 270.711 199.363, 268.414 196.694 C 267.086 195.151, 265.964 192.901, 265.921 191.694 C 265.878 190.487, 265.608 190.085, 265.321 190.801 C 265.034 191.516, 265.377 193.496, 266.083 195.199 C 267.290 198.114, 267.195 198.433, 264.478 200.600 C 262.889 201.866, 257.510 204.954, 252.524 207.462 C 247.538 209.970, 239.541 215.054, 234.754 218.761 C 229.966 222.467, 224.575 226.533, 222.774 227.795 C 220.973 229.057, 215.317 233.220, 210.204 237.045 C 205.091 240.870, 200.113 244, 199.141 244 C 197.106 244, 193.871 240.628, 189.066 233.500 C 187.212 230.750, 184.033 226.700, 182.003 224.500 C 179.972 222.300, 177.273 218.925, 176.004 217 C 174.735 215.075, 171.046 210.768, 167.805 207.429 C 162.417 201.878, 161.999 201.133, 162.917 198.719 C 163.882 196.181, 163.827 196.122, 161.490 197.187 C 159.842 197.937, 158.647 197.969, 157.780 197.284 C 154.707 194.858, 122.032 178.021, 120.372 178.009 C 118.408 177.994, 116.876 175.269, 116.043 170.308 C 115.516 167.168, 115.142 166.368, 114.965 168 M 263.460 173.477 C 263.083 176.490, 263.168 181.102, 263.648 183.727 C 264.398 187.833, 264.521 187.067, 264.521 178.250 C 264.521 172.613, 264.437 168, 264.333 168 C 264.229 168, 263.836 170.465, 263.460 173.477 M 493.249 173.539 C 493.287 176.036, 493.696 178.312, 494.159 178.598 C 494.622 178.884, 495 176.841, 495 174.059 C 495 171.277, 494.591 169, 494.090 169 C 493.590 169, 493.212 171.043, 493.249 173.539 M 175.260 181.815 C 173.499 185.492, 172.764 187.600, 173.628 186.500 C 175.332 184.330, 179.235 175.901, 178.757 175.423 C 178.595 175.262, 177.022 178.138, 175.260 181.815 M 14.182 188.500 C 15.331 191.021, 18 191.972, 18 189.860 C 18 188.706, 15.111 186.090, 13.771 186.032 C 13.371 186.014, 13.555 187.125, 14.182 188.500 M 169.004 191.496 C 167.714 192.869, 166.848 194.160, 167.079 194.364 C 167.311 194.569, 168.547 193.446, 169.826 191.868 C 172.689 188.338, 172.185 188.110, 169.004 191.496 M 20.203 192.854 C 18.374 194.013, 21.160 196.260, 23.373 195.410 C 25.438 194.618, 25.457 193.389, 23.418 192.607 C 21.508 191.874, 21.780 191.853, 20.203 192.854 M 498.201 196.255 C 497.269 197.380, 497.218 198.016, 498.018 198.511 C 499.498 199.426, 500.255 198.558, 499.838 196.423 C 499.534 194.860, 499.371 194.844, 498.201 196.255 M 7.387 224.434 C 7.053 225.303, 7.075 227.587, 7.435 229.508 C 7.926 232.121, 8.596 233, 10.100 233 C 11.873 233, 12.074 232.442, 11.805 228.259 C 11.575 224.683, 11.069 223.436, 9.747 223.185 C 8.783 223.002, 7.721 223.564, 7.387 224.434 M 8.393 236.582 C 8.727 237.452, 9 238.407, 9 238.704 C 9 239.002, 9.670 238.689, 10.489 238.009 C 12.204 236.585, 11.596 235, 9.334 235 C 8.333 235, 8.001 235.559, 8.393 236.582 M 4.685 242.096 C 4.080 244.409, 4.775 247, 6 247 C 6.432 247, 7.028 246.368, 7.325 245.596 C 7.981 243.887, 7.060 240, 6 240 C 5.578 240, 4.987 240.943, 4.685 242.096 M 495.640 287.403 C 495.823 293.950, 496.204 299.537, 496.486 299.820 C 496.769 300.102, 497 298.908, 497 297.167 C 497 295.019, 497.482 294, 498.500 294 C 500.663 294, 500.346 290.697, 498.046 289.261 C 496.529 288.314, 496.004 286.638, 495.700 281.770 C 495.484 278.322, 495.457 280.856, 495.640 287.403 M 491.272 304 C 491.272 306.475, 491.467 307.488, 491.706 306.250 C 491.944 305.012, 491.944 302.988, 491.706 301.750 C 491.467 300.512, 491.272 301.525, 491.272 304 M 492.349 324 C 492.349 328.675, 492.522 330.587, 492.732 328.250 C 492.943 325.913, 492.943 322.087, 492.732 319.750 C 492.522 317.413, 492.349 319.325, 492.349 324 M 498.035 331.934 C 496.686 334.456, 496.730 335, 498.282 335 C 498.987 335, 499.657 333.875, 499.771 332.500 C 500.019 329.503, 499.438 329.313, 498.035 331.934 M 491.500 335.576 C 489.770 336.301, 490.910 349.692, 492.830 351.194 C 494.316 352.356, 494.353 352.312, 493.166 350.796 C 492.257 349.636, 491.939 346.846, 492.166 342.044 C 492.350 338.167, 492.500 335.032, 492.500 335.077 C 492.500 335.121, 492.050 335.346, 491.500 335.576 M 496.252 343.500 C 496.263 345.700, 496.468 346.482, 496.707 345.238 C 496.946 343.994, 496.937 342.194, 496.687 341.238 C 496.437 340.282, 496.241 341.300, 496.252 343.500 M 497.229 354.188 C 497.847 356.042, 500 356.349, 500 354.583 C 500 353.712, 499.288 353, 498.417 353 C 497.546 353, 497.011 353.534, 497.229 354.188 M 492.570 386.887 C 492.268 387.375, 492.784 387.712, 493.716 387.637 C 494.874 387.543, 495.483 388.354, 495.641 390.196 C 495.918 393.431, 497.698 397, 499.035 397 C 499.566 397, 500 395.425, 500 393.500 C 500 391.353, 499.513 390, 498.741 390 C 498.048 390, 496.919 389.100, 496.232 388 C 494.902 385.871, 493.467 385.435, 492.570 386.887 M 489.250 398.662 C 488.563 398.940, 488 399.752, 488 400.467 C 488 401.182, 487.100 402.002, 486 402.290 C 484.900 402.577, 484 403.530, 484 404.406 C 484 405.283, 483.283 406, 482.406 406 C 481.530 406, 480.584 406.876, 480.304 407.946 C 480.024 409.017, 479.053 410.090, 478.147 410.330 C 477.031 410.627, 477.225 410.805, 478.750 410.884 C 480.372 410.968, 481 410.442, 481 409 C 481 407.667, 481.667 407, 483 407 C 484.368 407, 485 406.333, 485 404.892 C 485 403.114, 485.413 402.887, 487.630 403.443 C 489.926 404.019, 490.192 403.842, 489.723 402.049 C 489.385 400.756, 489.800 399.637, 490.843 399.028 C 492.557 398.027, 491.452 397.774, 489.250 398.662 M 471.619 412.433 C 470.178 414.322, 469 416.347, 469 416.933 C 469 417.520, 468.137 418, 467.082 418 C 464.469 418, 462 419.024, 462 420.107 C 462 421.653, 468.023 421.103, 468.638 419.500 C 468.955 418.675, 469.855 418, 470.638 418 C 471.422 418, 472.322 417.325, 472.638 416.500 C 472.955 415.675, 474.066 415, 475.107 415 C 476.273 415, 476.970 414.328, 476.921 413.250 C 476.874 412.205, 476.639 412.003, 476.338 412.750 C 475.639 414.482, 473 414.324, 473 412.550 C 473 411.752, 473.788 410.641, 474.750 410.080 C 475.712 409.519, 475.991 409.047, 475.369 409.030 C 474.746 409.014, 473.059 410.545, 471.619 412.433 M 443 432 C 443 433.174, 443.769 433.174, 446.500 432 C 448.272 431.238, 448.187 431.133, 445.750 431.070 C 444.238 431.032, 443 431.450, 443 432 M 46.667 433.667 C 45.431 434.902, 45.977 439, 47.378 439 C 49.353 439, 51.325 436.290, 50.643 434.513 C 50.046 432.955, 47.846 432.487, 46.667 433.667 M 436.250 435.689 C 437.212 435.941, 438.788 435.941, 439.750 435.689 C 440.712 435.438, 439.925 435.232, 438 435.232 C 436.075 435.232, 435.288 435.438, 436.250 435.689 M 427.466 439.055 C 426.630 440.408, 428.676 441.962, 431.323 441.985 C 433.929 442.007, 433.035 438.580, 430.334 438.193 C 429.154 438.024, 427.864 438.412, 427.466 439.055 M 413.732 444 C 412.548 445.383, 410.782 446, 408.010 446 C 405.333 446, 403.335 446.665, 402 448 C 400.458 449.542, 398.667 450, 394.174 450 C 389.260 450, 387.983 450.389, 386.010 452.490 C 383.815 454.826, 383.774 455.092, 385.336 456.818 C 386.251 457.830, 387 459.424, 387 460.360 C 387 462.765, 389.408 463.397, 392.615 461.834 C 396.355 460.012, 396.684 458.211, 393.500 457 C 389.453 455.461, 391.013 453.538, 396.578 453.207 C 399.339 453.042, 401.975 452.291, 402.581 451.496 C 404.182 449.398, 408.799 447.911, 411.560 448.604 C 413.260 449.031, 414.165 448.734, 414.598 447.606 C 414.937 446.723, 415.999 446, 416.958 446 C 419.607 446, 425 443.922, 425 442.902 C 425 442.406, 422.850 442, 420.222 442 C 416.682 442, 415.001 442.518, 413.732 444 M 415.173 450.659 C 415.368 451.672, 416.196 452.500, 417.014 452.500 C 419.157 452.500, 418.848 449.594, 416.659 449.173 C 415.323 448.916, 414.916 449.323, 415.173 450.659 M 403.658 453.675 C 403.296 454.037, 403 454.660, 403 455.060 C 403 456.181, 405.870 457.019, 406.457 456.070 C 407.119 454.999, 404.540 452.793, 403.658 453.675 M 371.517 455.947 C 370.972 457.664, 370.051 457.871, 363.733 457.697 C 357.403 457.523, 356.522 457.722, 356.181 459.403 C 355.824 461.159, 356.260 461.258, 361.796 460.679 C 366.371 460.201, 368.080 460.392, 368.985 461.482 C 369.638 462.269, 369.938 463.291, 369.652 463.754 C 368.750 465.214, 370.728 467.318, 372.399 466.677 C 373.622 466.208, 374 464.639, 374 460.031 C 374 454.131, 372.747 452.071, 371.517 455.947 M 81.570 455.886 C 81.269 456.374, 81.884 456.998, 82.936 457.273 C 84.276 457.624, 84.691 457.358, 84.318 456.387 C 83.714 454.812, 82.384 454.570, 81.570 455.886 M 89.750 458.689 C 88.787 458.941, 88 459.792, 88 460.582 C 88 461.767, 88.349 461.799, 90 460.768 C 91.100 460.081, 92 459.177, 92 458.759 C 92 458.342, 91.888 458.052, 91.750 458.116 C 91.612 458.180, 90.713 458.438, 89.750 458.689 M 343.507 461.989 C 342.556 463.527, 344.851 466, 347.229 466 C 348.633 466, 349.035 466.466, 348.604 467.590 C 347.582 470.254, 348.863 470.915, 352.008 469.346 C 353.661 468.521, 355.276 466.748, 355.619 465.381 C 356.258 462.834, 355.078 460.515, 354.280 462.750 C 354.034 463.438, 353.196 464, 352.417 464 C 351.637 464, 351.113 463.438, 351.250 462.750 C 351.568 461.158, 344.453 460.458, 343.507 461.989 M 323.937 465.576 C 322.853 466.883, 322.874 467.308, 324.064 468.061 C 324.854 468.561, 325.837 468.976, 326.250 468.985 C 327.485 469.010, 327.097 467.206, 325.750 466.662 C 325.025 466.370, 325.260 466.125, 326.309 466.079 C 327.304 466.036, 327.840 465.550, 327.500 465 C 326.617 463.572, 325.443 463.762, 323.937 465.576 M 290.188 474.063 C 290.428 474.784, 291.216 475.572, 291.938 475.813 C 292.688 476.063, 293.063 475.688, 292.813 474.938 C 292.572 474.216, 291.784 473.428, 291.063 473.188 C 290.313 472.938, 289.938 473.313, 290.188 474.063 M 218.471 478.032 C 217.460 479.149, 215.703 479.937, 214.566 479.782 C 212.935 479.559, 212.429 480.128, 212.161 482.486 C 211.841 485.304, 211.925 485.382, 213.661 483.877 C 216.025 481.827, 223.430 480.034, 230.193 479.875 L 235.500 479.750 231.230 479.055 C 228.882 478.673, 226.429 477.829, 225.780 477.180 C 223.971 475.371, 220.514 475.774, 218.471 478.032 M 194.323 486.696 C 193.125 486.929, 191.567 487.817, 190.860 488.668 C 189.792 489.956, 189.892 490.448, 191.456 491.591 C 193.733 493.257, 195.563 492.065, 196.251 488.469 C 196.510 487.111, 196.673 486.061, 196.611 486.136 C 196.550 486.211, 195.520 486.463, 194.323 486.696" stroke="none" fill="#fa4c2b" fill-rule="evenodd"/><path d="M 247.500 22.080 C 245.235 22.596, 245.037 22.792, 246.693 22.882 C 247.900 22.947, 249.592 24.007, 250.454 25.238 C 251.724 27.051, 252.352 27.264, 253.761 26.359 C 255.081 25.512, 256.194 25.597, 258.381 26.715 C 260.781 27.941, 261.996 27.981, 265.660 26.955 C 268.551 26.146, 273.998 25.897, 281.551 26.231 C 287.872 26.510, 293.285 26.349, 293.579 25.873 C 293.873 25.397, 295.416 25.681, 297.007 26.504 C 300.862 28.497, 301.526 28.413, 304.210 25.592 C 305.469 24.267, 307.400 22.969, 308.500 22.708 C 310.800 22.161, 309.249 22.113, 275.500 21.701 C 261.750 21.533, 249.150 21.704, 247.500 22.080 M 324.750 23.706 C 325.988 23.944, 328.012 23.944, 329.250 23.706 C 330.488 23.467, 329.475 23.272, 327 23.272 C 324.525 23.272, 323.512 23.467, 324.750 23.706 M 324.699 27.634 C 324.300 28.033, 320.942 28.395, 317.237 28.437 C 305.410 28.573, 309.027 30.066, 322.323 30.537 C 334.121 30.955, 335.119 30.852, 334.814 29.246 C 334.567 27.947, 333.323 27.424, 329.954 27.204 C 327.463 27.041, 325.099 27.235, 324.699 27.634 M 219.543 28.931 C 219.226 29.443, 219.384 30.119, 219.893 30.434 C 221.198 31.240, 224.104 29.977, 223.435 28.895 C 222.711 27.723, 220.275 27.746, 219.543 28.931 M 230 29.083 C 228.295 29.572, 229.806 29.885, 234.750 30.067 C 238.738 30.213, 242.675 30.371, 243.500 30.417 C 244.325 30.462, 245.002 30.050, 245.003 29.500 C 245.008 28.338, 233.691 28.024, 230 29.083 M 203.911 32.607 C 202.344 34.495, 203.963 34.828, 211 34.066 C 215.727 33.554, 216.818 33.189, 215 32.729 C 209.993 31.463, 204.907 31.407, 203.911 32.607 M 351.652 31.681 C 351.254 32.079, 348.808 32.426, 346.215 32.452 C 338.303 32.532, 339.748 34.466, 347.789 34.558 C 353.732 34.626, 355.024 34.366, 354.789 33.153 C 354.456 31.440, 352.712 30.621, 351.652 31.681 M 246 34 C 245.016 35.839, 243.906 36, 232.205 36 C 220.564 36, 219.375 36.170, 218.232 38 C 217.199 39.653, 215.900 40, 210.732 40 C 205.564 40, 204.265 40.347, 203.232 42 C 202.268 43.544, 200.900 44, 197.232 44 C 193.564 44, 192.196 44.456, 191.232 46 C 190.260 47.557, 188.900 48, 185.099 48 C 181.679 48, 180.041 48.450, 179.638 49.500 C 179.258 50.490, 177.692 51, 175.031 51 C 172.333 51, 170.339 51.661, 169 53 C 167.900 54.100, 165.879 55, 164.508 55 C 163.100 55, 161.474 55.869, 160.768 57 C 160.015 58.205, 158.436 59, 156.795 59 C 155.069 59, 153.667 59.754, 152.970 61.056 C 151.536 63.735, 144.706 63.497, 144.185 60.750 C 143.919 59.346, 144.565 59, 147.458 59 C 151.667 59, 153.071 56.841, 150.621 54.134 C 148.377 51.654, 148.527 51.311, 152.420 50.026 C 154.301 49.406, 156.413 48.208, 157.112 47.365 C 158.014 46.278, 157.091 46.462, 153.942 47.995 C 151.499 49.185, 148.825 50.574, 148 51.082 C 147.175 51.590, 145.375 52.453, 144 53.002 C 142.625 53.550, 140.825 54.450, 140 55.002 C 139.175 55.553, 137.582 56.407, 136.459 56.898 C 135.336 57.390, 133.843 58.484, 133.141 59.330 C 132.438 60.177, 129.982 61.840, 127.682 63.027 C 125.382 64.214, 122.600 65.983, 121.500 66.957 C 120.400 67.932, 117.475 69.898, 115 71.326 C 112.525 72.754, 106.234 78.215, 101.020 83.461 C 95.806 88.708, 91.216 93, 90.820 93 C 87.971 93, 76 103.813, 76 106.387 C 76 107.428, 74.404 109.266, 64.070 120.123 C 58.883 125.572, 53.520 131.936, 52.151 134.265 C 50.783 136.594, 48.614 139.772, 47.332 141.327 C 46.049 142.881, 45 144.588, 45 145.119 C 45 145.650, 44.545 146.628, 43.988 147.292 C 39.380 152.792, 36.390 157.637, 31.530 167.482 C 28.196 174.235, 25.152 179.134, 24.079 179.475 C 22.066 180.114, 17.321 178.580, 15.002 176.540 C 14.176 175.813, 11.731 174.282, 9.568 173.138 C 4.992 170.716, 3 171.595, 3 176.037 C 3 178.228, 4.023 179.557, 7.750 182.205 C 10.363 184.062, 13.737 186.201, 15.250 186.959 C 17.854 188.265, 19.080 191, 17.062 191 C 16.546 191, 16.161 191.787, 16.207 192.750 C 16.325 195.267, 13.010 207.271, 11.788 208.750 C 11.220 209.438, 9.209 210, 7.320 210 C 3.897 210, 3.886 210.015, 4.193 214.250 C 4.486 218.300, 4.655 218.505, 7.780 218.600 C 9.621 218.656, 11.607 219.448, 12.306 220.404 C 13.551 222.106, 17 221.730, 17 219.893 C 17 219.402, 18.095 219, 19.433 219 C 21.071 219, 22.096 218.272, 22.573 216.769 C 23.595 213.550, 26.543 209.574, 34.732 200.373 C 40.021 194.430, 45.083 190.169, 53.573 184.516 C 70.057 173.538, 73.155 172.545, 91 172.520 C 101.193 172.506, 106.482 172.914, 108.806 173.894 C 112.402 175.411, 114.228 174.572, 114.530 171.266 C 115.965 155.512, 125.258 141.264, 138.408 134.657 C 143.683 132.007, 144.723 131.839, 153.783 132.179 C 164.319 132.574, 167.878 134.113, 173.328 140.631 C 178.986 147.398, 180.411 151.815, 180.386 162.500 C 180.366 170.812, 179.951 173.470, 177.931 178.248 C 175.021 185.129, 168.212 194.776, 165.693 195.588 C 164.699 195.909, 163.442 197.338, 162.899 198.765 C 162.004 201.120, 162.455 201.917, 167.805 207.429 C 171.046 210.768, 174.735 215.075, 176.004 217 C 177.273 218.925, 179.972 222.300, 182.003 224.500 C 184.033 226.700, 187.212 230.750, 189.066 233.500 C 193.871 240.628, 197.106 244, 199.141 244 C 200.113 244, 205.091 240.870, 210.204 237.045 C 215.317 233.220, 220.973 229.057, 222.774 227.795 C 224.575 226.533, 229.975 222.452, 234.774 218.726 C 239.573 215, 246.425 210.536, 250 208.806 C 253.575 207.076, 258.909 204.138, 261.853 202.277 C 266.386 199.411, 267.102 198.557, 266.526 196.697 C 266.153 195.489, 265.141 190.916, 264.279 186.535 C 261.295 171.386, 265.924 155.764, 276.422 145.551 C 284.247 137.940, 289.764 135.549, 299.500 135.549 C 305.965 135.549, 308.412 136.010, 312.256 137.955 C 323.263 143.523, 330.936 157.389, 330.985 171.803 C 331.004 177.226, 328.182 189.866, 326.371 192.473 C 323.710 196.302, 324.649 198.364, 330.250 200.985 C 338.185 204.699, 343.578 208.309, 352.251 215.714 C 361.374 223.504, 365.253 228.558, 370.559 239.570 C 374.220 247.169, 374.421 248.122, 375.365 262.401 C 376.065 272.992, 376.022 279.934, 375.216 286.401 C 374.017 296.026, 370.957 308.497, 368.568 313.500 C 356.726 338.292, 355.291 340.897, 347.053 352.562 C 337.498 366.093, 334.190 369.862, 329.991 372.005 C 326.509 373.781, 325.894 373.825, 323.327 372.487 C 321.772 371.676, 319.991 371.010, 319.369 371.006 C 318.747 371.003, 313.409 368.558, 307.508 365.572 C 299.100 361.319, 294.724 359.775, 287.287 358.436 C 278.366 356.830, 277.188 356.828, 267.656 358.411 C 258.883 359.868, 256.537 360.705, 250.275 364.608 C 242.396 369.518, 236.480 375.897, 234.927 381.155 C 232.051 390.893, 233.196 420.456, 236.644 425.473 C 237.390 426.557, 238 428.328, 238 429.407 C 238 430.486, 238.838 433.198, 239.861 435.434 C 243.482 443.344, 244.231 447.652, 242.550 450.903 C 241.150 453.611, 233.160 461, 231.632 461 C 230.828 461, 216.519 472.117, 212.927 475.533 C 211.512 476.878, 208.935 478.263, 207.200 478.610 C 205.464 478.957, 203.487 479.913, 202.805 480.735 C 201.786 481.963, 201.990 482.574, 203.955 484.164 C 207.509 487.042, 211.360 486.247, 212.016 482.500 C 212.422 480.183, 213.008 479.564, 214.587 479.782 C 215.712 479.937, 217.460 479.149, 218.471 478.032 C 220.618 475.659, 223.184 475.446, 226.285 477.384 C 227.561 478.181, 233.162 479.092, 239.500 479.533 C 252.781 480.457, 252.933 480.457, 260.654 479.499 C 264.039 479.079, 267.977 479.028, 269.404 479.387 C 271.714 479.966, 272 480.530, 272 484.506 C 272 488.676, 272.236 489.072, 275.539 490.452 C 278.707 491.776, 279.435 491.760, 282.491 490.303 C 285.533 488.852, 285.936 488.189, 286.202 484.190 C 286.385 481.434, 287.078 479.421, 288 478.970 C 291.981 477.019, 300.186 476, 311.905 476 C 322.598 476, 325.521 475.665, 329.141 474.022 C 331.919 472.761, 335.699 472.036, 339.563 472.022 C 344.998 472.002, 345.921 472.308, 348.478 474.977 C 352.370 479.040, 357.214 480.568, 361.097 478.960 C 364.525 477.540, 366.363 474.720, 365.544 472.137 C 364.943 470.245, 367.288 468.609, 372 467.633 C 377.126 466.572, 385.872 464.197, 386.825 463.608 C 388.080 462.832, 387.178 459.032, 385.195 456.740 C 383.814 455.144, 383.890 454.746, 386.010 452.490 C 387.983 450.389, 389.260 450, 394.174 450 C 398.667 450, 400.458 449.542, 402 448 C 403.335 446.665, 405.333 446, 408.010 446 C 410.782 446, 412.548 445.383, 413.732 444 C 415.001 442.518, 416.682 442, 420.222 442 C 422.850 442, 425 442.406, 425 442.902 C 425 443.922, 419.607 446, 416.958 446 C 415.999 446, 414.937 446.723, 414.598 447.606 C 414.165 448.734, 413.260 449.031, 411.560 448.604 C 408.799 447.911, 404.182 449.398, 402.581 451.496 C 401.975 452.291, 399.339 453.042, 396.578 453.207 C 391.002 453.539, 389.455 455.462, 393.520 457.008 C 395.289 457.680, 396.009 458.534, 395.633 459.514 C 395.319 460.331, 395.188 461, 395.341 461 C 395.944 461, 420.492 452.788, 425.586 450.882 C 428.564 449.768, 431 448.489, 431 448.039 C 431 447.590, 432.530 446.936, 434.400 446.585 C 436.269 446.234, 438.325 445.313, 438.969 444.538 C 439.612 443.763, 441.426 442.846, 443 442.500 C 444.574 442.154, 446.374 441.254, 447 440.500 C 447.626 439.746, 449.426 438.846, 451 438.500 C 452.574 438.154, 454.398 437.225, 455.053 436.436 C 455.709 435.646, 456.795 435, 457.467 435 C 458.140 435, 459.510 434.094, 460.512 432.987 C 461.514 431.879, 464.276 430.004, 466.650 428.818 C 469.076 427.607, 477.080 420.604, 484.924 412.831 C 492.600 405.224, 499.108 399, 499.386 399 C 499.663 399, 500.059 401.137, 500.265 403.750 C 500.471 406.363, 500.649 381.275, 500.660 348 C 500.671 314.725, 500.498 288.962, 500.277 290.750 C 500.041 292.647, 499.300 294, 498.497 294 C 497.525 294, 496.918 296.066, 496.428 301.036 C 495.932 306.069, 495.261 308.325, 494.070 308.963 C 492.632 309.732, 492.433 311.604, 492.612 322.677 C 492.780 333.119, 493.095 335.556, 494.308 335.804 C 497.290 336.412, 497.558 352, 494.586 352 C 492.064 352, 491 349.409, 491 343.269 C 491 338.563, 490.615 336.789, 489.500 336.362 C 487.320 335.525, 487.280 309.502, 489.456 308.284 C 490.425 307.742, 491.031 305.342, 491.268 301.109 C 491.540 296.241, 492.078 294.415, 493.562 293.329 C 495.222 292.113, 495.500 290.663, 495.500 283.205 C 495.500 275.267, 495.689 274.417, 497.642 273.559 C 500.568 272.274, 500.811 268.201, 500.207 230.518 C 499.798 205.048, 499.451 199.319, 498.264 198.451 C 497.015 197.538, 497.035 197.216, 498.410 196.075 C 500.731 194.148, 500.615 184.187, 498.250 182.392 C 496.589 181.131, 496.589 181.062, 498.243 181.032 C 499.805 181.003, 499.980 179.754, 499.927 169 C 499.895 162.400, 499.547 157, 499.155 157 C 498.763 157, 496.964 153.962, 495.157 150.250 C 493.351 146.537, 490.546 141.025, 488.925 138 C 487.304 134.975, 485.714 131.670, 485.392 130.656 C 485.069 129.642, 483.387 126.790, 481.653 124.318 C 479.919 121.846, 478.041 119.076, 477.480 118.162 C 473.701 112.009, 471.038 108.276, 469.535 107.029 C 468.579 106.236, 466.206 103.092, 464.260 100.043 C 462.315 96.995, 459.773 93.551, 458.612 92.391 C 457.450 91.231, 452.913 86.579, 448.528 82.053 C 444.143 77.527, 438.518 72.646, 436.028 71.207 C 433.538 69.768, 429.861 67.061, 427.857 65.191 C 424.242 61.816, 421.571 60.023, 417.250 58.068 C 416.012 57.508, 415 56.565, 415 55.974 C 415 55.382, 413.456 54.253, 411.568 53.464 C 409.681 52.676, 407.854 51.573, 407.509 51.015 C 407.164 50.457, 406.426 50, 405.870 50 C 405.313 50, 405.650 50.788, 406.618 51.750 C 408.298 53.420, 408.259 53.514, 405.774 53.808 C 403.043 54.131, 401.364 56.489, 403.101 57.562 C 404.934 58.696, 408.976 57.102, 408.358 55.490 C 407.653 53.653, 411.033 53.433, 412.800 55.200 C 414.372 56.772, 414.337 59, 412.741 59 C 412.048 59, 410.919 59.900, 410.232 61 C 409.441 62.267, 407.900 63, 406.027 63 C 404.094 63, 402.700 62.308, 402 61 C 401.411 59.900, 400.114 59, 399.118 59 C 398.121 59, 396.268 58.100, 395 57 C 393.732 55.900, 391.429 55, 389.882 55 C 388.094 55, 386.681 54.272, 386 53 C 385.313 51.716, 383.906 51, 382.072 51 C 380.454 51, 378.964 50.349, 378.638 49.500 C 378.244 48.471, 376.636 48, 373.522 48 C 370.218 48, 368.514 47.455, 367.268 46 C 366.052 44.580, 364.318 44, 361.286 44 C 358.100 44, 356.700 43.493, 355.768 42 C 354.676 40.252, 353.436 40, 345.914 40 C 338.580 40, 337.043 39.705, 335.500 38 C 333.884 36.215, 332.420 36, 321.853 36 C 311.100 36, 309.903 35.817, 308.768 34 C 307.564 32.072, 306.436 32, 277.295 32 C 248.094 32, 247.034 32.068, 246 34 M 192.469 36.049 C 191.312 37.921, 193.060 38.781, 197.742 38.641 C 201.239 38.537, 202.500 38.103, 202.500 37.002 C 202.500 35.912, 201.216 35.449, 197.778 35.301 C 195.182 35.190, 192.793 35.527, 192.469 36.049 M 356.557 35.776 C 356.251 36.083, 356 36.897, 356 37.586 C 356 38.455, 357.609 38.781, 361.250 38.649 C 365.133 38.509, 366.500 38.074, 366.500 36.980 C 366.500 35.904, 365.220 35.462, 361.807 35.360 C 359.226 35.283, 356.863 35.470, 356.557 35.776 M 180.598 38.735 C 180.269 39.064, 180 40.211, 180 41.283 C 180 42.817, 179.520 43.105, 177.750 42.630 C 176.512 42.299, 174.150 42.007, 172.500 41.982 C 169.645 41.939, 169.594 41.865, 171.441 40.468 C 172.509 39.661, 173.042 39, 172.625 39 C 171.981 39, 168.072 40.806, 167.222 41.497 C 167.069 41.621, 167.395 42.910, 167.947 44.361 C 168.851 46.739, 169.458 47, 174.069 47 C 178.250 47, 179.278 46.653, 179.682 45.107 C 179.975 43.988, 181.402 42.970, 183.175 42.615 C 184.823 42.285, 185.998 41.493, 185.784 40.853 C 185.322 39.466, 181.449 37.884, 180.598 38.735 M 379.446 44.087 C 379.077 44.685, 379.170 45.570, 379.654 46.054 C 380.910 47.310, 385 46.032, 385 44.383 C 385 42.739, 380.430 42.495, 379.446 44.087 M 392.479 47.024 C 391.188 48.450, 390.960 49.360, 391.708 50.108 C 392.455 50.855, 393.246 50.488, 394.384 48.862 C 397.238 44.787, 395.777 43.378, 392.479 47.024 M 163.500 49 C 163.840 49.550, 164.766 50, 165.559 50 C 166.352 50, 167 49.550, 167 49 C 167 48.450, 166.073 48, 164.941 48 C 163.809 48, 163.160 48.450, 163.500 49 M 155.008 51.490 C 153.985 52.723, 154.180 53.136, 156.136 53.886 C 158.867 54.932, 160.535 53.836, 159.664 51.567 C 158.904 49.587, 156.619 49.549, 155.008 51.490 M 416.675 67.658 C 415.929 68.404, 417.803 71, 419.087 71 C 419.550 71, 422.573 73.720, 425.806 77.044 C 430.821 82.201, 431.864 82.869, 432.917 81.599 C 433.927 80.383, 433.774 79.876, 432.076 78.815 C 430.934 78.102, 430 76.968, 430 76.295 C 430 75.621, 429.100 74.589, 428 74 C 426.900 73.411, 426 72.270, 426 71.465 C 426 70.659, 425.311 70, 424.469 70 C 423.626 70, 422.678 69.325, 422.362 68.500 C 421.785 66.997, 417.910 66.423, 416.675 67.658 M 114.543 75.931 C 113.860 77.036, 115.437 78.230, 116.361 77.306 C 117.311 76.355, 117.134 75, 116.059 75 C 115.541 75, 114.859 75.419, 114.543 75.931 M 438.750 81.080 C 436.940 82.134, 436.291 86, 437.923 86 C 438.431 86, 440.704 87.895, 442.975 90.212 C 446.275 93.579, 447.433 94.217, 448.742 93.391 C 451.503 91.649, 451.380 90, 448.490 90 C 446.654 90, 445.648 89.372, 445.290 88 C 445.002 86.900, 444.171 86, 443.442 86 C 441.421 86, 440.787 84.266, 441.989 82.021 C 443.218 79.725, 441.789 79.310, 438.750 81.080 M 86.543 98.931 C 85.803 100.128, 87.684 101.313, 89.016 100.490 C 90.135 99.799, 89.400 98, 88 98 C 87.515 98, 86.859 98.419, 86.543 98.931 M 452.464 102.058 C 452.105 102.639, 454.321 105.625, 457.389 108.694 C 462.084 113.389, 463.208 114.073, 464.484 113.013 C 466.632 111.230, 466.363 109, 464 109 C 462.667 109, 462 108.333, 462 107 C 462 105.758, 461.333 105, 460.241 105 C 459.273 105, 457.919 104.100, 457.232 103 C 455.879 100.833, 453.511 100.365, 452.464 102.058 M 78 107.441 C 78 108.234, 78.470 109.172, 79.044 109.527 C 80.335 110.325, 83.183 108.105, 82.430 106.887 C 81.534 105.438, 78 105.880, 78 107.441 M 465.046 117.950 C 463.859 118.701, 464.222 119.514, 467.018 122.374 C 469.573 124.988, 470.768 125.608, 471.722 124.816 C 473.623 123.238, 473.268 121, 471.117 121 C 470.074 121, 469 120.107, 468.710 119 C 468.136 116.805, 467.255 116.553, 465.046 117.950 M 472.533 129.947 C 471.653 131.370, 472.775 133, 474.632 133 C 475.508 133, 476.010 132.297, 475.823 131.333 C 475.434 129.324, 473.437 128.484, 472.533 129.947 M 55.446 134.087 C 54.573 135.499, 56.501 137.427, 57.913 136.554 C 59.499 135.574, 59.243 133, 57.559 133 C 56.766 133, 55.816 133.489, 55.446 134.087 M 476.388 138.181 C 475.962 138.870, 476.562 139.961, 477.829 140.803 C 479.210 141.719, 480 143.279, 480 145.087 C 480 146.906, 480.720 148.315, 482 149 C 483.126 149.603, 484 151.094, 484 152.413 C 484 153.706, 484.970 155.400, 486.164 156.193 C 487.812 157.287, 488.374 158.755, 488.524 162.352 C 488.648 165.316, 489.316 167.527, 490.317 168.288 C 491.314 169.045, 492.023 171.375, 492.207 174.491 C 492.431 178.308, 492.912 179.560, 494.250 179.814 C 496.916 180.321, 496.775 170.011, 494.083 167.575 C 492.967 166.565, 491.887 163.815, 491.499 160.995 C 491.121 158.247, 490.220 155.915, 489.416 155.606 C 488.576 155.284, 488 153.670, 488 151.638 C 488 149.517, 487.429 147.995, 486.500 147.638 C 485.559 147.277, 485 145.748, 485 143.531 C 485 141.199, 484.532 140, 483.622 140 C 482.865 140, 481.685 139.325, 481 138.500 C 479.507 136.701, 477.393 136.555, 476.388 138.181 M 20.203 192.854 C 18.374 194.013, 21.160 196.260, 23.373 195.410 C 25.438 194.618, 25.457 193.389, 23.418 192.607 C 21.508 191.874, 21.780 191.853, 20.203 192.854 M 7.387 224.434 C 7.053 225.303, 7.075 227.587, 7.435 229.508 C 7.926 232.121, 8.596 233, 10.100 233 C 11.873 233, 12.074 232.442, 11.805 228.259 C 11.575 224.683, 11.069 223.436, 9.747 223.185 C 8.783 223.002, 7.721 223.564, 7.387 224.434 M 4.685 242.096 C 4.080 244.409, 4.775 247, 6 247 C 6.432 247, 7.028 246.368, 7.325 245.596 C 7.981 243.887, 7.060 240, 6 240 C 5.578 240, 4.987 240.943, 4.685 242.096 M 1 257.500 C 1 264.795, 2.413 267.643, 3.481 262.500 C 3.766 261.125, 4.226 258.906, 4.502 257.569 C 5.082 254.755, 3.526 250, 2.025 250 C 1.416 250, 1 253.046, 1 257.500 M 6.750 265.754 C 4.011 267.104, 4 267.152, 4 277.586 C 4 285.976, 3.701 288.177, 2.500 288.638 C 1.190 289.141, 1 296.791, 1 349.107 C 1 407.667, 1.045 409.045, 3 411 C 4.238 412.238, 5 414.333, 5 416.498 C 5 419.212, 5.902 420.949, 9.025 424.248 C 11.239 426.587, 13.405 429.849, 13.838 431.498 C 14.341 433.410, 15.548 434.821, 17.173 435.392 C 20.379 436.519, 25 435.421, 25 433.531 C 25 432.743, 25.762 431.673, 26.692 431.152 C 27.992 430.425, 29.442 431.081, 32.942 433.978 C 35.449 436.054, 38.681 438.370, 40.125 439.126 C 53.430 446.090, 63.771 451, 65.135 451 C 66.041 451, 67.047 452.052, 67.370 453.338 C 67.693 454.623, 68.908 456.884, 70.071 458.363 L 72.185 461.050 77.754 458.034 L 83.324 455.017 84.785 457.104 C 85.851 458.625, 87.027 459.076, 89.124 458.769 C 92.487 458.275, 92.811 459.013, 90 460.768 C 87.564 462.289, 87.322 467.179, 89.571 469.429 C 91.630 471.488, 100.289 471.562, 101.971 469.535 C 103.291 467.945, 102.518 460.438, 100.933 459.459 C 100.437 459.152, 100.558 458.079, 101.206 457.041 C 102.167 455.502, 101.927 454.591, 99.834 451.838 C 98.438 450.002, 96.488 446.932, 95.501 445.015 C 94.513 443.098, 90.021 437.698, 85.519 433.015 C 81.017 428.332, 76.108 422.556, 74.610 420.181 C 71.935 415.937, 71.916 415.788, 73.486 411.681 C 74.364 409.381, 79.115 402.777, 84.042 397.004 C 88.969 391.232, 93 386.092, 93 385.583 C 93 385.074, 93.610 383.947, 94.354 383.079 C 95.889 381.290, 99.792 373.914, 103.127 366.500 C 104.936 362.480, 105.385 359.638, 105.420 352 C 105.468 341.436, 104.513 338.728, 98.835 333.328 C 94.181 328.900, 75.613 318.153, 70.632 317.003 C 65.562 315.832, 55.049 315.822, 49 316.982 C 43.436 318.049, 32.897 321.703, 31.578 323.022 C 30.439 324.161, 24.016 324.309, 22.384 323.235 C 20.127 321.748, 17.213 314.298, 16.034 307 C 15.367 302.875, 14.393 298.425, 13.869 297.110 C 13.344 295.796, 12.444 288.371, 11.867 280.610 C 11.291 272.850, 10.522 266.027, 10.160 265.449 C 9.712 264.735, 8.617 264.833, 6.750 265.754 M 497 310.226 C 497 310.991, 497.685 312.491, 498.523 313.559 C 499.975 315.411, 500.033 315.365, 499.773 312.577 C 499.502 309.677, 497 307.555, 497 310.226 M 498.035 331.934 C 496.653 334.518, 496.726 335, 498.500 335 C 499.433 335, 500 334.056, 500 332.500 C 500 329.499, 499.427 329.334, 498.035 331.934 M 497.229 354.188 C 497.847 356.042, 500 356.349, 500 354.583 C 500 353.712, 499.288 353, 498.417 353 C 497.546 353, 497.011 353.534, 497.229 354.188 M 492.667 386.667 C 491.419 387.915, 491.995 389.864, 493.780 390.430 C 494.759 390.741, 496.070 392.346, 496.693 393.998 C 498.226 398.058, 500 397.791, 500 393.500 C 500 391.353, 499.513 390, 498.741 390 C 498.048 390, 496.919 389.100, 496.232 388 C 494.941 385.933, 493.820 385.513, 492.667 386.667 M 479.250 404.616 C 473.613 410.389, 469 415.762, 469 416.556 C 469 417.350, 468.137 418, 467.082 418 C 464.469 418, 462 419.024, 462 420.107 C 462 421.653, 468.023 421.103, 468.638 419.500 C 468.955 418.675, 469.855 418, 470.638 418 C 471.422 418, 472.322 417.325, 472.638 416.500 C 472.955 415.675, 474.066 415, 475.107 415 C 476.333 415, 477 414.296, 477 413 C 477 411.667, 477.667 411, 479 411 C 480.333 411, 481 410.333, 481 409 C 481 407.667, 481.667 407, 483 407 C 484.368 407, 485 406.333, 485 404.892 C 485 403.114, 485.413 402.887, 487.630 403.443 C 489.926 404.019, 490.192 403.842, 489.723 402.049 C 489.397 400.802, 489.779 399.663, 490.696 399.150 C 492.307 398.249, 492.167 394.848, 490.500 394.393 C 489.950 394.243, 484.887 398.844, 479.250 404.616 M 443 432 C 443 433.174, 443.769 433.174, 446.500 432 C 448.272 431.238, 448.187 431.133, 445.750 431.070 C 444.238 431.032, 443 431.450, 443 432 M 46.667 433.667 C 45.431 434.902, 45.977 439, 47.378 439 C 49.353 439, 51.325 436.290, 50.643 434.513 C 50.046 432.955, 47.846 432.487, 46.667 433.667 M 436.250 435.689 C 437.212 435.941, 438.788 435.941, 439.750 435.689 C 440.712 435.438, 439.925 435.232, 438 435.232 C 436.075 435.232, 435.288 435.438, 436.250 435.689 M 427.466 439.055 C 426.630 440.408, 428.676 441.962, 431.323 441.985 C 433.929 442.007, 433.035 438.580, 430.334 438.193 C 429.154 438.024, 427.864 438.412, 427.466 439.055 M 415.173 450.659 C 415.368 451.672, 416.196 452.500, 417.014 452.500 C 419.157 452.500, 418.848 449.594, 416.659 449.173 C 415.323 448.916, 414.916 449.323, 415.173 450.659 M 403.658 453.675 C 403.296 454.037, 403 454.660, 403 455.060 C 403 456.181, 405.870 457.019, 406.457 456.070 C 407.119 454.999, 404.540 452.793, 403.658 453.675 M 371.517 455.947 C 370.972 457.664, 370.051 457.871, 363.733 457.697 C 357.403 457.523, 356.522 457.722, 356.181 459.403 C 355.824 461.159, 356.260 461.258, 361.796 460.679 C 366.371 460.201, 368.080 460.392, 368.985 461.482 C 369.638 462.269, 369.938 463.291, 369.652 463.754 C 368.750 465.214, 370.728 467.318, 372.399 466.677 C 373.622 466.208, 374 464.639, 374 460.031 C 374 454.131, 372.747 452.071, 371.517 455.947 M 343.548 461.922 C 342.563 463.516, 344.805 466, 347.229 466 C 348.633 466, 349.035 466.466, 348.604 467.590 C 347.582 470.254, 348.863 470.915, 352.008 469.346 C 354.617 468.045, 357.031 463.698, 355.819 462.486 C 355.587 462.254, 352.894 461.770, 349.833 461.410 C 346.038 460.964, 344.040 461.127, 343.548 461.922 M 104.974 466.569 C 103.102 471.492, 106.267 478, 110.533 478 C 115.540 478, 116.149 471.813, 111.657 466.585 C 108.829 463.294, 106.221 463.288, 104.974 466.569 M 324.200 465.200 C 322.578 466.822, 322.690 467.667, 324.627 468.410 C 326.997 469.320, 329.349 467.126, 327.890 465.367 C 326.496 463.687, 325.747 463.653, 324.200 465.200 M 290.188 474.063 C 290.428 474.784, 291.216 475.572, 291.938 475.813 C 292.688 476.063, 293.063 475.688, 292.813 474.938 C 292.572 474.216, 291.784 473.428, 291.063 473.188 C 290.313 472.938, 289.938 473.313, 290.188 474.063 M 194.323 486.696 C 193.125 486.929, 191.567 487.817, 190.860 488.668 C 189.792 489.956, 189.892 490.448, 191.456 491.591 C 193.733 493.257, 195.563 492.065, 196.251 488.469 C 196.510 487.111, 196.673 486.061, 196.611 486.136 C 196.550 486.211, 195.520 486.463, 194.323 486.696" stroke="none" fill="#f8bd1f" fill-rule="evenodd"/></svg>